<svg xmlns="http://www.w3.org/2000/svg" width="360" height="240" viewBox="0 0 360 240" role="img">
<defs>
  <linearGradient id="panelGlow" x1="0" x2="1"><stop stop-color="#007C91" stop-opacity=".28"/><stop offset=".52" stop-color="#00875F" stop-opacity=".10"/><stop offset="1" stop-color="#6639BA" stop-opacity=".20"/></linearGradient>
  <filter id="softGlow" x="-30%" y="-30%" width="160%" height="160%"><feGaussianBlur stdDeviation="3" result="b"/><feMerge><feMergeNode in="b"/><feMergeNode in="SourceGraphic"/></feMerge></filter>
  
</defs>
<rect width="100%" height="100%" rx="16" fill="#F6F8FA"/>
<rect x="1" y="1" width="358" height="238" rx="16" fill="#FFFFFF" stroke="#7AA7B7" stroke-width="2"/><text x="24" y="38" fill="#00875F" font-family="ui-monospace, SFMono-Regular, Menlo, Consolas, 'Liberation Mono', monospace" font-size="17" font-weight="700">SYSTEM STATUS</text><circle cx="325" cy="32" r="6" fill="#00875F" filter="url(#softGlow)"/><text x="264" y="37" fill="#17212B" font-family="ui-monospace, SFMono-Regular, Menlo, Consolas, 'Liberation Mono', monospace" font-size="12">Online</text><text x="24" y="84" fill="#17212B" font-family="ui-monospace, SFMono-Regular, Menlo, Consolas, 'Liberation Mono', monospace" font-size="13">FOCUSED</text><rect x="150" y="72" width="140" height="13" rx="7" fill="#D8E3E7"/><rect x="150" y="72" width="134" height="13" rx="7" fill="#00875F"/><text x="326" y="83" text-anchor="end" fill="#57606A" font-family="ui-monospace, SFMono-Regular, Menlo, Consolas, 'Liberation Mono', monospace" font-size="11">96%</text><text x="24" y="122" fill="#17212B" font-family="ui-monospace, SFMono-Regular, Menlo, Consolas, 'Liberation Mono', monospace" font-size="13">LEARNING</text><rect x="150" y="110" width="140" height="13" rx="7" fill="#D8E3E7"/><rect x="150" y="110" width="116" height="13" rx="7" fill="#007C91"/><text x="326" y="121" text-anchor="end" fill="#57606A" font-family="ui-monospace, SFMono-Regular, Menlo, Consolas, 'Liberation Mono', monospace" font-size="11">83%</text><text x="24" y="160" fill="#17212B" font-family="ui-monospace, SFMono-Regular, Menlo, Consolas, 'Liberation Mono', monospace" font-size="13">BUILDING</text><rect x="150" y="148" width="140" height="13" rx="7" fill="#D8E3E7"/><rect x="150" y="148" width="104" height="13" rx="7" fill="#0969DA"/><text x="326" y="159" text-anchor="end" fill="#57606A" font-family="ui-monospace, SFMono-Regular, Menlo, Consolas, 'Liberation Mono', monospace" font-size="11">74%</text><text x="24" y="198" fill="#17212B" font-family="ui-monospace, SFMono-Regular, Menlo, Consolas, 'Liberation Mono', monospace" font-size="13">CONTRIBUTING</text><rect x="150" y="186" width="140" height="13" rx="7" fill="#D8E3E7"/><rect x="150" y="186" width="85" height="13" rx="7" fill="#6639BA"/><text x="326" y="197" text-anchor="end" fill="#57606A" font-family="ui-monospace, SFMono-Regular, Menlo, Consolas, 'Liberation Mono', monospace" font-size="11">61%</text>
</svg>